<svg width="42" height="42" viewBox="0 0 42 42" fill="none" xmlns="http://www.w3.org/2000/svg">
<style>
  path { fill: #1E1E1E; }
  @media (prefers-color-scheme: dark) {
    path { fill: #ffffff; }
  }
</style>
<g clip-path="url(#clip0_2930_30690)">
<path d="M21 0C9.40129 0 0 9.40129 0 21C0 32.5987 9.40129 42 21 42C32.5987 42 42 32.5987 42 21C42 9.40129 32.5973 0 21 0ZM31.963 30.9204H29.272V24.6325C29.272 24.1304 29.0771 23.9157 28.9306 23.7962C28.7344 23.6369 28.5338 23.5601 28.3148 23.5601C28.1811 23.5601 28.036 23.59 27.8867 23.6483C27.5496 23.7791 27.3761 24.0224 27.3235 24.4348C27.3149 24.5031 27.3107 24.5813 27.3107 24.6752C27.3107 26.1871 27.3107 27.7004 27.3107 29.2123V30.9218H24.6197V24.651C24.6197 24.3779 24.5728 24.1774 24.4718 24.0181C24.2784 23.7123 24.0252 23.5701 23.6739 23.5701C23.6298 23.5701 23.5843 23.5729 23.5388 23.5772C22.967 23.6326 22.6385 24.0167 22.6385 24.6339C22.6385 25.9353 22.6385 27.2353 22.6385 28.5367V34.2016H19.9688L19.9504 33.6213C19.9504 33.59 19.9475 33.5573 19.9475 33.526V31.2475C19.9447 29.0288 19.9432 26.81 19.9432 24.5913C19.9432 23.7166 19.9432 22.8419 19.9447 21.9672C19.9447 20.808 19.9475 19.6488 19.9461 18.4883C19.9447 16.8868 19.939 15.2853 19.9333 13.6838L19.929 12.5616C19.9276 12.0553 19.7199 11.8391 19.5649 11.721C19.3715 11.5745 19.1766 11.5034 18.9676 11.5034C18.8268 11.5034 18.676 11.5361 18.521 11.6016C18.1981 11.7353 18.0317 11.9742 17.9805 12.3753C17.972 12.445 17.9677 12.5246 17.9677 12.6156C17.9677 14.1261 17.9677 15.6352 17.9677 17.1456V18.8652H15.2767V12.6C15.2767 12.3739 15.244 12.2003 15.1772 12.0524C15.0193 11.7097 14.7064 11.5134 14.3181 11.5134C14.2783 11.5134 14.237 11.5162 14.1972 11.5205C13.6169 11.5831 13.2969 11.9586 13.2969 12.5744C13.2969 13.8857 13.2969 15.1971 13.2969 16.5084V18.8652H10.606V12.5545C10.606 11.3015 11.1663 10.2646 12.2274 9.55774C12.8503 9.14243 13.5885 8.9234 14.3636 8.9234C15.2213 8.9234 16.0433 9.1979 16.6834 9.69712C16.9309 9.50654 17.1926 9.35577 17.4671 9.24626C18.0146 9.02865 18.5551 8.91771 19.0728 8.91771C19.9091 8.91771 20.6928 9.20217 21.4025 9.76112C22.0653 10.2845 22.465 11.0298 22.5901 11.977C22.6171 12.1833 22.6214 12.3824 22.6214 12.5346C22.6214 13.3126 22.6214 14.092 22.6214 14.87C22.6214 15.857 22.6214 16.8427 22.6214 17.8297C22.6228 18.767 22.6271 19.7043 22.6328 20.6416L22.6356 21.1351C23.0154 21.0299 23.388 20.9772 23.7493 20.9772C24.5585 20.9772 25.3223 21.2389 26.0249 21.7581C26.7076 21.2432 27.4828 20.9829 28.3319 20.9829C28.4556 20.9829 28.5822 20.9886 28.7088 21C29.4953 21.0683 30.1766 21.3385 30.7355 21.8036C31.4083 22.3625 31.8108 23.1135 31.9317 24.0366C31.9587 24.2414 31.963 24.4391 31.963 24.6041C31.963 26.0832 31.963 27.5624 31.963 29.0416V30.919V30.9204Z"/>
</g>
<defs>
<clipPath id="clip0_2930_30690">
<rect width="42" height="42" fill="white"/>
</clipPath>
</defs>
</svg>
