<svg preserveAspectRatio="none" width="100%" height="100%" overflow="visible" style="display: block;" viewBox="0 0 32 32" fill="none" xmlns="http://www.w3.org/2000/svg">
<path id="Vector" d="M16 0C7.16289 0 0 7.16289 0 16C0 24.8371 7.16289 32 16 32C24.8371 32 32 24.8371 32 16C32 7.16289 24.836 0 16 0ZM24.3527 23.5584H22.3025V18.7676C22.3025 18.3851 22.154 18.2215 22.0424 18.1304C21.8929 18.0091 21.7401 17.9506 21.5732 17.9506C21.4713 17.9506 21.3608 17.9733 21.247 18.0177C20.9902 18.1174 20.858 18.3027 20.8179 18.617C20.8114 18.669 20.8081 18.7286 20.8081 18.8001C20.8081 19.9521 20.8081 21.105 20.8081 22.257V23.5595H18.7579V18.7817C18.7579 18.5737 18.7221 18.4209 18.6452 18.2995C18.4978 18.0665 18.3049 17.9581 18.0373 17.9581C18.0037 17.9581 17.969 17.9603 17.9343 17.9636C17.4987 18.0058 17.2484 18.2984 17.2484 18.7687C17.2484 19.7602 17.2484 20.7507 17.2484 21.7422V26.0584H15.2144L15.2003 25.6163C15.2003 25.5924 15.1981 25.5675 15.1981 25.5437V23.8077C15.1959 22.1172 15.1949 20.4267 15.1949 18.7362C15.1949 18.0698 15.1949 17.4033 15.1959 16.7369C15.1959 15.8537 15.1981 14.9705 15.197 14.0863C15.1959 12.8661 15.1916 11.6459 15.1873 10.4257L15.184 9.57074C15.1829 9.18497 15.0247 9.02025 14.9066 8.93031C14.7592 8.81869 14.6108 8.76451 14.4515 8.76451C14.3442 8.76451 14.2293 8.78944 14.1112 8.83928C13.8652 8.94115 13.7384 9.1232 13.6994 9.42879C13.6929 9.48188 13.6897 9.54257 13.6897 9.61192C13.6897 10.7628 13.6897 11.9125 13.6897 13.0633V14.3735H11.6394V9.6C11.6394 9.4277 11.6145 9.2955 11.5636 9.1828C11.4433 8.92164 11.2049 8.7721 10.909 8.7721C10.8787 8.7721 10.8473 8.77427 10.8169 8.77752C10.3748 8.8252 10.131 9.11128 10.131 9.5805C10.131 10.5796 10.131 11.5787 10.131 12.5779V14.3735H8.08073V9.56532C8.08073 8.61063 8.50769 7.82066 9.31609 7.28209C9.79072 6.96566 10.3531 6.79878 10.9437 6.79878C11.5972 6.79878 12.2235 7.00793 12.7111 7.38828C12.8997 7.24308 13.0991 7.12821 13.3082 7.04477C13.7254 6.87897 14.1372 6.79445 14.5317 6.79445C15.1688 6.79445 15.7659 7.01118 16.3067 7.43705C16.8117 7.83583 17.1162 8.40366 17.2115 9.12537C17.2321 9.28249 17.2354 9.4342 17.2354 9.55015C17.2354 10.1429 17.2354 10.7367 17.2354 11.3295C17.2354 12.0815 17.2354 12.8325 17.2354 13.5846C17.2364 14.2987 17.2397 15.0128 17.244 15.7269L17.2462 16.1029C17.5355 16.0228 17.8194 15.9827 18.0947 15.9827C18.7113 15.9827 19.2932 16.1821 19.8285 16.5776C20.3487 16.1853 20.9393 15.987 21.5862 15.987C21.6805 15.987 21.7769 15.9913 21.8734 16C22.4726 16.052 22.9917 16.2579 23.4175 16.6123C23.9301 17.0381 24.2368 17.6103 24.3289 18.3136C24.3495 18.4696 24.3527 18.6203 24.3527 18.746C24.3527 19.8729 24.3527 20.9999 24.3527 22.1269V23.5573V23.5584Z" fill="var(--fill-0, #1E1E1E)"/>
</svg>
